<?xml version="1.0" encoding="UTF-8" standalone="no"?>
<svg
   xmlns:dc="http://purl.org/dc/elements/1.1/"
   xmlns:cc="http://creativecommons.org/ns#"
   xmlns:rdf="http://www.w3.org/1999/02/22-rdf-syntax-ns#"
   xmlns:svg="http://www.w3.org/2000/svg"
   xmlns="http://www.w3.org/2000/svg"
   xmlns:sodipodi="http://sodipodi.sourceforge.net/DTD/sodipodi-0.dtd"
   xmlns:inkscape="http://www.inkscape.org/namespaces/inkscape"
   width="198mm"
   height="201mm"
   viewBox="0 0 198 201"
   version="1.1"
   id="svg37"
   inkscape:version="0.92.5 (2060ec1f9f, 2020-04-08)"
   sodipodi:docname="icon-twitter.svg"
   inkscape:export-filename="/home/dipper_gomes_/Documentos/Meus_Projetos/Meu-Site/_imagens/twitter.png"
   inkscape:export-xdpi="90"
   inkscape:export-ydpi="90">
  <defs
     id="defs31" />
  <sodipodi:namedview
     id="base"
     pagecolor="#ffffff"
     bordercolor="#666666"
     borderopacity="1.0"
     inkscape:pageopacity="0.0"
     inkscape:pageshadow="2"
     inkscape:zoom="0.49497475"
     inkscape:cx="51.164636"
     inkscape:cy="369.39806"
     inkscape:document-units="mm"
     inkscape:current-layer="g67"
     inkscape:document-rotation="0"
     showgrid="false"
     inkscape:window-width="1366"
     inkscape:window-height="704"
     inkscape:window-x="0"
     inkscape:window-y="27"
     inkscape:window-maximized="1" />
  <metadata
     id="metadata34">
    <rdf:RDF>
      <cc:Work
         rdf:about="">
        <dc:format>image/svg+xml</dc:format>
        <dc:type
           rdf:resource="http://purl.org/dc/dcmitype/StillImage" />
        <dc:title />
      </cc:Work>
    </rdf:RDF>
  </metadata>
  <g
     inkscape:label="Layer 1"
     inkscape:groupmode="layer"
     id="layer1">
    <g
       id="g67"
       transform="matrix(0.35277779,0,0,0.35277779,31.155532,51.190469)"
       style="fill:#ffff00">
      <g
         id="g1414"
         transform="matrix(1.0980666,0,0,1.0980666,1291.8727,-599.36229)"
         style="fill:#333333;fill-opacity:1;stroke:none;stroke-width:8.64279;stroke-miterlimit:4;stroke-dasharray:none;stroke-opacity:1"
         inkscape:export-xdpi="90"
         inkscape:export-ydpi="90"
         inkscape:export-filename="/home/dipper_gomes_/Documentos/Meus_Projetos/Meu-Site/_imagens/twitter.png">
        <path
           style="fill:#333333;fill-opacity:1;stroke:none;stroke-width:8.64279;stroke-miterlimit:4;stroke-dasharray:none;stroke-opacity:1"
           d="m -858.03897,579.97577 c -6.513,2.889 -13.271,5.167 -20.208,6.815 7.644,-7.261 13.39,-16.346 16.631,-26.484 0.926,-2.893 -2.219,-5.398 -4.832,-3.848 -9.65,5.725 -20.044,10.016 -30.894,12.762 -0.628,0.16 -1.276,0.24 -1.929,0.24 -1.979,0 -3.896,-0.733 -5.411,-2.065 -11.542,-10.174 -26.39,-15.777 -41.80502,-15.777 -6.672,0 -13.405,1.04 -20.016,3.091 -20.487,6.353 -36.29501,23.254 -41.25701,44.103 -1.86,7.818 -2.362,15.648 -1.496,23.264 0.097,0.876 -0.314,1.486 -0.569,1.772 -0.45,0.502 -1.084,0.791 -1.745,0.791 -0.072,0 -0.15,-0.003 -0.224,-0.01 -44.846,-4.168 -85.287,-25.772 -113.869,-60.837 -1.455,-1.789 -4.253,-1.569 -5.415,0.422 -5.596,9.606 -8.554,20.589 -8.554,31.766 0,17.127 6.884,33.27 18.837,45.039 -5.027,-1.193 -9.893,-3.07 -14.414,-5.582 -2.188,-1.214 -4.877,0.35 -4.908,2.851 -0.31,25.445 14.588,48.087 36.905,58.282 -0.45,0.01 -0.9,0.014 -1.35,0.014 -3.537,0 -7.121,-0.338 -10.645,-1.015 -2.463,-0.467 -4.532,1.867 -3.768,4.253 7.246,22.618 26.717,39.288 50.021,43.07 -19.339,12.983 -41.863,19.83 -65.302,19.83 l -7.306,-0.003 c -2.255,0 -4.16,1.469 -4.73,3.65 -0.565,2.145 0.474,4.413 2.396,5.53 26.412,15.372 56.541,23.495 87.138,23.495 26.784,0 51.838,-5.313 74.46601,-15.798 20.745,-9.609 39.07602,-23.345 54.48602,-40.827 14.357,-16.286 25.581,-35.085 33.365,-55.879 7.418,-19.816 11.34,-40.967 11.34,-61.154 v -0.964 c 0,-3.241 1.465,-6.291 4.024,-8.37 9.706,-7.882 18.16,-17.158 25.122,-27.572 1.84,-2.748 -1.06,-6.196 -4.084,-4.855 z"
           id="path1354" />
        <g
           id="g1358"
           style="fill:#333333;fill-opacity:1;stroke:none;stroke-width:8.64279;stroke-miterlimit:4;stroke-dasharray:none;stroke-opacity:1" />
        <g
           id="g1360"
           style="fill:#333333;fill-opacity:1;stroke:none;stroke-width:8.64279;stroke-miterlimit:4;stroke-dasharray:none;stroke-opacity:1" />
        <g
           id="g1362"
           style="fill:#333333;fill-opacity:1;stroke:none;stroke-width:8.64279;stroke-miterlimit:4;stroke-dasharray:none;stroke-opacity:1" />
        <g
           id="g1364"
           style="fill:#333333;fill-opacity:1;stroke:none;stroke-width:8.64279;stroke-miterlimit:4;stroke-dasharray:none;stroke-opacity:1" />
        <g
           id="g1366"
           style="fill:#333333;fill-opacity:1;stroke:none;stroke-width:8.64279;stroke-miterlimit:4;stroke-dasharray:none;stroke-opacity:1" />
        <g
           id="g1368"
           style="fill:#333333;fill-opacity:1;stroke:none;stroke-width:8.64279;stroke-miterlimit:4;stroke-dasharray:none;stroke-opacity:1" />
        <g
           id="g1370"
           style="fill:#333333;fill-opacity:1;stroke:none;stroke-width:8.64279;stroke-miterlimit:4;stroke-dasharray:none;stroke-opacity:1" />
        <g
           id="g1372"
           style="fill:#333333;fill-opacity:1;stroke:none;stroke-width:8.64279;stroke-miterlimit:4;stroke-dasharray:none;stroke-opacity:1" />
        <g
           id="g1374"
           style="fill:#333333;fill-opacity:1;stroke:none;stroke-width:8.64279;stroke-miterlimit:4;stroke-dasharray:none;stroke-opacity:1" />
        <g
           id="g1376"
           style="fill:#333333;fill-opacity:1;stroke:none;stroke-width:8.64279;stroke-miterlimit:4;stroke-dasharray:none;stroke-opacity:1" />
        <g
           id="g1378"
           style="fill:#333333;fill-opacity:1;stroke:none;stroke-width:8.64279;stroke-miterlimit:4;stroke-dasharray:none;stroke-opacity:1" />
        <g
           id="g1380"
           style="fill:#333333;fill-opacity:1;stroke:none;stroke-width:8.64279;stroke-miterlimit:4;stroke-dasharray:none;stroke-opacity:1" />
        <g
           id="g1382"
           style="fill:#333333;fill-opacity:1;stroke:none;stroke-width:8.64279;stroke-miterlimit:4;stroke-dasharray:none;stroke-opacity:1" />
        <g
           id="g1384"
           style="fill:#333333;fill-opacity:1;stroke:none;stroke-width:8.64279;stroke-miterlimit:4;stroke-dasharray:none;stroke-opacity:1" />
        <g
           id="g1386"
           style="fill:#333333;fill-opacity:1;stroke:none;stroke-width:8.64279;stroke-miterlimit:4;stroke-dasharray:none;stroke-opacity:1" />
      </g>
    </g>
  </g>
</svg>
