<?xml version="1.0" encoding="UTF-8" standalone="no"?>
<svg
   xmlns:dc="http://purl.org/dc/elements/1.1/"
   xmlns:cc="http://creativecommons.org/ns#"
   xmlns:rdf="http://www.w3.org/1999/02/22-rdf-syntax-ns#"
   xmlns:svg="http://www.w3.org/2000/svg"
   xmlns="http://www.w3.org/2000/svg"
   xmlns:sodipodi="http://sodipodi.sourceforge.net/DTD/sodipodi-0.dtd"
   xmlns:inkscape="http://www.inkscape.org/namespaces/inkscape"
   width="198mm"
   height="201mm"
   viewBox="0 0 198 201"
   version="1.1"
   id="svg37"
   inkscape:version="1.0.2 (1.0.2+r75+1)"
   sodipodi:docname="logo-site.svg"
   inkscape:export-filename="/home/dipper_gomes_/Documentos/Meus_Projetos/Meu-Site/_imagens/logo.png"
   inkscape:export-xdpi="90"
   inkscape:export-ydpi="90">
  <defs
     id="defs31">
    <rect
       x="23.27788"
       y="27.07296"
       width="160.58304"
       height="228.31806"
       id="rect20" />
  </defs>
  <sodipodi:namedview
     id="base"
     pagecolor="#ffffff"
     bordercolor="#666666"
     borderopacity="1.0"
     inkscape:pageopacity="0.0"
     inkscape:pageshadow="2"
     inkscape:zoom="0.49497475"
     inkscape:cx="384.08998"
     inkscape:cy="449.97959"
     inkscape:document-units="mm"
     inkscape:current-layer="g67"
     inkscape:document-rotation="0"
     showgrid="false"
     inkscape:window-width="1366"
     inkscape:window-height="704"
     inkscape:window-x="0"
     inkscape:window-y="27"
     inkscape:window-maximized="1" />
  <metadata
     id="metadata34">
    <rdf:RDF>
      <cc:Work
         rdf:about="">
        <dc:format>image/svg+xml</dc:format>
        <dc:type
           rdf:resource="http://purl.org/dc/dcmitype/StillImage" />
        <dc:title />
      </cc:Work>
    </rdf:RDF>
  </metadata>
  <g
     inkscape:label="Layer 1"
     inkscape:groupmode="layer"
     id="layer1">
    <g
       id="g67"
       transform="matrix(0.35277779,0,0,0.35277779,31.155532,51.190469)"
       style="fill:#ffff00">
      <g
         inkscape:label="Layer 1"
         id="layer1-6"
         transform="matrix(3.5278773,0,0,3.5278773,-556.81981,68.800159)"
         style="fill:#fbaf00;fill-opacity:1;stroke:none;stroke-opacity:1">
        <text
           xml:space="preserve"
           style="font-style:normal;font-weight:normal;font-size:259.397px;font-family:sans-serif;fill:#fbaf00;fill-opacity:1;stroke:none;stroke-width:6.4849;stroke-opacity:1"
           x="242.69362"
           y="88.503494"
           id="text16"
           inkscape:export-xdpi="90"
           inkscape:export-ydpi="90"><tspan
             sodipodi:role="line"
             id="tspan14"
             x="242.69362"
             y="88.503494"
             style="font-style:normal;font-variant:normal;font-weight:normal;font-stretch:normal;font-family:FreeSerif;-inkscape-font-specification:FreeSerif;fill:#fbaf00;fill-opacity:1;stroke:none;stroke-width:6.4849;stroke-opacity:1">.</tspan></text>
        <text
           xml:space="preserve"
           id="text18"
           style="font-style:normal;font-weight:normal;font-size:10.5833px;font-family:sans-serif;white-space:pre;shape-inside:url(#rect20);fill:#fbaf00;fill-opacity:1;stroke:none;stroke-opacity:1;" />
      </g>
      <g
         id="g29"
         transform="matrix(1.8134642,0,0,1.8134642,1590.3267,-291.57226)"
         style="fill:#fbaf00;fill-opacity:1">
        <g
           id="g17"
           style="fill:#fbaf00;fill-opacity:1" />
        <path
           d="m -801.04112,237.67642 v 39.328 h 56.9 c -4.66,20.97 -23.41,36.69 -45.77,36.69 h -26.26 c -25.86,0 -46.89,-21.03 -46.89,-46.89 v -65.4 c 0,-25.85 21.03,-46.88 46.89,-46.88 h 26.26 c 25.86,0 46.89,21.03 46.89,46.88 h 58 c 0,-57.83 -47.05,-104.879999 -104.89,-104.879999 h -26.26 c -57.84,0 -104.89,47.049999 -104.89,104.879999 v 65.4 c 0,57.84 47.05,104.89 104.89,104.89 h 26.26 c 1.141,0 2.277,-0.025 3.41,-0.061 14.231,-0.327 38.749,-2.122 67.432,-19.213 31.12,-18.543 34.046,-43.306 34.046,-60.684 0,-6.127 0,-15.374 0,-24.778 0,-0.051 0.002,-0.102 0.002,-0.154 v -29.128 z"
           fill="#f8fffb"
           id="path21"
           style="fill:#fbaf00;fill-opacity:1" />
        <g
           fill="#d8d8d8"
           id="g27"
           style="fill:#fbaf00;fill-opacity:1" />
      </g>
    </g>
  </g>
</svg>
