<?xml version="1.0" encoding="UTF-8" standalone="no"?>
<svg
   xmlns:dc="http://purl.org/dc/elements/1.1/"
   xmlns:cc="http://creativecommons.org/ns#"
   xmlns:rdf="http://www.w3.org/1999/02/22-rdf-syntax-ns#"
   xmlns:svg="http://www.w3.org/2000/svg"
   xmlns="http://www.w3.org/2000/svg"
   xmlns:sodipodi="http://sodipodi.sourceforge.net/DTD/sodipodi-0.dtd"
   xmlns:inkscape="http://www.inkscape.org/namespaces/inkscape"
   version="1.1"
   id="Layer_1"
   x="0px"
   y="0px"
   viewBox="0 0 492 492"
   style="enable-background:new 0 0 492 492;"
   xml:space="preserve"
   sodipodi:docname="seta-topo.svg"
   inkscape:version="1.0.2 (1.0.2+r75+1)"><metadata
   id="metadata43"><rdf:RDF><cc:Work
       rdf:about=""><dc:format>image/svg+xml</dc:format><dc:type
         rdf:resource="http://purl.org/dc/dcmitype/StillImage" /><dc:title></dc:title></cc:Work></rdf:RDF></metadata><defs
   id="defs41" /><sodipodi:namedview
   pagecolor="#ffffff"
   bordercolor="#666666"
   borderopacity="1"
   objecttolerance="10"
   gridtolerance="10"
   guidetolerance="10"
   inkscape:pageopacity="0"
   inkscape:pageshadow="2"
   inkscape:window-width="1366"
   inkscape:window-height="704"
   id="namedview39"
   showgrid="false"
   inkscape:zoom="0.7904649"
   inkscape:cx="105.76967"
   inkscape:cy="235.25455"
   inkscape:window-x="0"
   inkscape:window-y="27"
   inkscape:window-maximized="1"
   inkscape:current-layer="Layer_1" />
<g
   id="g6"
   transform="matrix(0.00513277,0.96584807,-0.77239979,0.00641828,433.04288,4.193221)"
   style="fill:#333333;fill-opacity:1;stroke:none;stroke-width:4;stroke-miterlimit:4;stroke-dasharray:none;stroke-opacity:1">
	<g
   id="g4"
   style="fill:#333333;fill-opacity:1;stroke:none;stroke-width:4;stroke-miterlimit:4;stroke-dasharray:none;stroke-opacity:1">
		<path
   d="m 438.11025,211.55137 0.69249,0.15592 -296.87219,0.0594 93.3445,-96.36829 c 4.5709,-4.70488 7.07895,-11.07766 7.08026,-17.765766 0.002,-6.688107 -2.50429,-13.015296 -7.07336,-17.729496 l -14.5186,-14.963587 c -4.56546,-4.703055 -10.64985,-7.302766 -17.13872,-7.301467 -6.49249,0.0013 -12.58149,2.584871 -17.14877,7.289754 L 26.465535,229.74371 c -4.585329,4.72346 -7.09337,11.0145 -7.076636,17.70632 -0.01934,6.72898 2.486252,13.02273 7.069747,17.73693 L 186.4049,429.95357 c 4.56546,4.69935 10.64985,7.2842 17.14594,7.28289 6.48887,-0.002 12.57427,-2.5923 17.14156,-7.28976 l 14.52442,-14.96939 c 4.57089,-4.69746 7.07894,-10.96991 7.08023,-17.65802 0.002,-6.68439 -2.50436,-12.62516 -7.07343,-17.3245 l -94.36017,-96.86946 297.56473,-0.0596 c 13.3709,-0.003 24.6088,-11.87632 24.61148,-25.64267 l 0.004,-21.16786 c 0.003,-13.76635 -11.56262,-24.70652 -24.93352,-24.70385 z"
   id="path2"
   style="fill:#333333;fill-opacity:1;stroke:none;stroke-width:3.66087;stroke-miterlimit:4;stroke-dasharray:none;stroke-opacity:1" />
	</g>
</g>
<g
   id="g8">
</g>
<g
   id="g10">
</g>
<g
   id="g12">
</g>
<g
   id="g14">
</g>
<g
   id="g16">
</g>
<g
   id="g18">
</g>
<g
   id="g20">
</g>
<g
   id="g22">
</g>
<g
   id="g24">
</g>
<g
   id="g26">
</g>
<g
   id="g28">
</g>
<g
   id="g30">
</g>
<g
   id="g32">
</g>
<g
   id="g34">
</g>
<g
   id="g36">
</g>
</svg>
